<svg viewBox="0 0 169 24" xmlns="http://www.w3.org/2000/svg"><path d="M19.5612 -0.0032959H8.21767H2.97913L8.62422 5.6418C9.32403 6.34161 10.2771 6.7415 11.2702 6.7415H19.7278C21.0341 6.7415 22.3138 7.79454 22.4337 9.10084C22.507 9.95394 22.1805 10.7271 21.6273 11.2536C21.0208 11.8268 21.0208 12.7932 21.6073 13.3863L24.2532 16.0323C24.8331 16.6121 25.7795 16.6188 26.366 16.0456C28.1855 14.2594 29.2918 11.7334 29.1719 8.94089C28.9586 3.89562 24.6131 0.0033678 19.5612 0.0033678V-0.0032959Z" fill="#090909" /><path d="M15.3024 10.0805C14.6026 9.3807 13.6495 8.98081 12.6565 8.98081H10.5171C9.52402 8.98081 8.57095 8.58758 7.87115 7.88111L4.49209 4.48206H0L4.47209 8.97414L17.915 22.4171C18.9014 23.4035 20.2344 23.95 21.6207 23.95H29.1852L15.3024 10.0672V10.0805Z" fill="#090909" /><path d="M6.91137 23.9634C9.08308 23.9634 10.8436 22.2028 10.8436 20.0311C10.8436 17.8594 9.08308 16.0989 6.91137 16.0989C4.73965 16.0989 2.97913 17.8594 2.97913 20.0311C2.97913 22.2028 4.73965 23.9634 6.91137 23.9634Z" fill="#090909" /><path d="M46.1205 -0.0032959H43.8345C37.2296 -0.0032959 31.8511 5.36855 31.8511 11.98C31.8511 18.5915 37.223 23.9634 43.8345 23.9634H46.1205C52.7253 23.9634 58.1038 18.5915 58.1038 11.98C58.1038 5.36855 52.732 -0.0032959 46.1205 -0.0032959Z" fill="#090909" /><path d="M46.1205 17.6651H43.8345C40.702 17.6651 38.1494 15.1125 38.1494 11.98C38.1494 8.84755 40.702 6.29492 43.8345 6.29492H46.1205C49.253 6.29492 51.8056 8.84755 51.8056 11.98C51.8056 15.1125 49.253 17.6651 46.1205 17.6651Z" fill="#FCD623" /><path d="M127.798 -0.0032959H125.512C118.907 -0.0032959 113.528 5.36855 113.528 11.98C113.528 18.5915 118.9 23.9634 125.512 23.9634H127.798C134.403 23.9634 139.781 18.5915 139.781 11.98C139.781 5.36855 134.409 -0.0032959 127.798 -0.0032959ZM127.798 17.6651H125.512C122.379 17.6651 119.827 15.1125 119.827 11.98C119.827 8.84758 122.379 6.29496 125.512 6.29496H127.798C130.93 6.29496 133.483 8.84758 133.483 11.98C133.483 15.1125 130.93 17.6651 127.798 17.6651Z" fill="#090909" /><path d="M110.529 23.9567V-0.0032959H104.311V15.9989L93.2141 1.23636C92.6276 0.456577 91.7146 0.0033678 90.7415 0.0033678H86.0695V23.9634H92.2877V10.1472L101.665 22.7237C102.252 23.5102 103.171 23.97 104.144 23.97H110.536L110.529 23.9567Z" fill="#090909" /><path d="M156.05 16.6187H149.119V23.9433H142.774V-0.0100098H158.423C162.368 -0.0100098 165.654 2.90251 166.267 6.68813C166.28 6.78144 166.3 6.87474 166.307 6.96805C166.32 7.07469 166.334 7.18133 166.34 7.29463C166.354 7.48124 166.367 7.66786 166.367 7.85447C166.367 7.8878 166.367 7.91446 166.367 7.94778C166.367 7.94778 166.367 7.96111 166.367 7.96777C166.367 7.97444 166.367 7.98777 166.367 7.99443C166.367 8.04775 166.36 8.0944 166.36 8.14772C166.36 8.20104 166.367 8.25436 166.367 8.30768C166.367 11.1935 164.894 13.7395 162.661 15.2258L168.14 23.99L162.228 23.9567C161.155 23.9567 160.162 23.3902 159.602 22.4704L156.043 16.6254L156.05 16.6187ZM157.15 11.0536C158.663 11.0536 159.896 9.82059 159.896 8.30768C159.896 6.79477 158.663 5.56177 157.15 5.56177H149.125V11.0469H157.15V11.0536Z" fill="#090909" /><path d="M83.4168 23.9634H75.2657L55.5446 -0.0032959H63.6956L83.4168 23.9634Z" fill="#090909" /><path d="M83.73 -0.0032959L64.9353 22.837C64.3488 23.5502 63.469 23.9634 62.5493 23.9634H55.8578L74.6526 1.12306C75.2391 0.409922 76.1188 -0.0032959 77.0386 -0.0032959H83.73Z" fill="#090909" /></svg>